/vscmnt/brussel_pixiu_data/_data_brussel/112/vsc11236/PredSimResults/SUBJ11mtu3D/worker5.mot
version=1
nRows=6
nColumns=50
inDegrees=yes
endheader
                time	         pelvis_tilt	         pelvis_list	     pelvis_rotation	           pelvis_tx	           pelvis_ty	           pelvis_tz	       hip_flexion_r	     hip_adduction_r	      hip_rotation_r	        knee_angle_r	       ankle_angle_r	         mtp_angle_r	       hip_flexion_l	     hip_adduction_l	      hip_rotation_l	        knee_angle_l	       ankle_angle_l	         mtp_angle_l	    lumbar_extension	      lumbar_bending	     lumbar_rotation	 ercspn_r/activation	 intobl_r/activation	 extobl_r/activation	    abd_r/activation	    add_r/activation	hamstrings_r/activation	bifemsh_r/activation	glut_max_r/activation	iliopsoas_r/activation	rect_fem_r/activation	  vasti_r/activation	gastroc_r/activation	 soleus_r/activation	tib_ant_r/activation	 ercspn_l/activation	 intobl_l/activation	 extobl_l/activation	    abd_l/activation	    add_l/activation	hamstrings_l/activation	bifemsh_l/activation	glut_max_l/activation	iliopsoas_l/activation	rect_fem_l/activation	  vasti_l/activation	gastroc_l/activation	 soleus_l/activation	tib_ant_l/activation	
          1.35103380	         -6.79001120	         -2.03106484	          5.73186035	          1.48613718	          0.93862393	         -0.00736696	         32.79268812	         -0.68565216	         -3.40777375	         -4.22925390	          6.08708759	          0.22750486	        -11.36471442	         -2.99965027	          0.08264631	         -7.86850305	         12.55156132	         25.66454389	        -10.11194365	         -1.23575954	          1.71069158	          0.01339082	          0.30657644	          0.11812944	          0.01093007	          0.10047026	          0.09553341	          0.32543465	          0.02422165	          0.11386793	          0.01404657	          0.01000001	          0.02682770	          0.00999999	          0.30870438	          0.01000000	          0.01000001	          0.01000004	          0.03112500	          0.00999999	          0.04611023	          0.20231829	          0.02192559	          0.01225174	          0.01000000	          0.01000000	          0.33171201	          0.21163876	          0.00999999	
          1.36454414	         -6.80030700	         -2.11795511	          5.83588710	          1.50466699	          0.93618274	         -0.00664086	         32.67276034	         -0.55317341	         -3.89947939	         -5.69801297	          5.57002097	          0.23646307	        -12.01068634	         -3.24390728	         -0.20016032	         -8.73550393	         12.08593261	         27.43940176	         -9.79019610	         -0.70161087	          1.57222262	          0.01092975	          0.25023130	          0.09641863	          0.01000000	          0.10082473	          0.08792118	          0.26562381	          0.07266127	          0.09294034	          0.01146503	          0.01000000	          0.02750814	          0.01501044	          0.33078657	          0.01000001	          0.01003882	          0.02454541	          0.02540459	          0.01459649	          0.06242877	          0.16513457	          0.02253142	          0.01000005	          0.01000001	          0.01000001	          0.30759355	          0.20291528	          0.00999999	
          1.37805448	         -6.79413054	         -2.21027606	          5.91998723	          1.52355517	          0.93399576	         -0.00586808	         32.42634460	         -0.42805701	         -4.30654007	         -7.16982617	          4.91772339	          0.21515157	        -12.52298881	         -3.49798169	         -0.51349346	         -9.88838114	         11.49331183	         29.29801335	         -9.44282384	         -0.14640364	          1.41876098	          0.01000000	          0.20424173	          0.07869802	          0.07409142	          0.09858769	          0.07596095	          0.21680529	          0.12582796	          0.07585900	          0.01000008	          0.00999999	          0.02245247	          0.01225170	          0.40184195	          0.01000000	          0.01000001	          0.02003425	          0.02073553	          0.01191383	          0.05095516	          0.13478478	          0.01839041	          0.01000002	          0.01000001	          0.01003141	          0.28012290	          0.18757814	          0.00999999	
          1.39156482	         -6.77784205	         -2.29582636	          5.98060232	          1.54240341	          0.93243474	         -0.00504065	         32.14863928	         -0.30336904	         -4.65628613	         -8.54841155	          4.08187162	          0.17443628	        -12.75685163	         -3.74870837	         -0.83977993	        -11.51030213	         10.72555561	         31.23554369	         -9.11465707	          0.41284130	          1.25737972	          0.02282928	          0.16670450	          0.06423425	          0.13522838	          0.12125524	          0.06203206	          0.17695903	          0.15903452	          0.06191700	          0.01000021	          0.01000000	          0.01832597	          0.00999999	          0.44179692	          0.03435492	          0.01000001	          0.01635219	          0.01692458	          0.01647989	          0.04159023	          0.11001292	          0.01501047	          0.01000007	          0.01000003	          0.01245533	          0.22863964	          0.15521440	          0.00999999	
          1.40507515	         -6.75214230	         -2.36769026	          6.01962380	          1.56095429	          0.93169113	         -0.00417684	         31.96348861	         -0.18500465	         -4.92399464	        -10.13216614	          3.52820911	          0.12087112	        -12.61208250	         -3.98999976	         -1.16980379	        -13.74343352	          9.79502595	         33.14626605	         -8.83065951	          0.96826792	          1.09174064	          0.03277662	          0.13606617	          0.05242875	          0.17966875	          0.16318110	          0.05063130	          0.14443604	          0.18204619	          0.05053738	          0.01000031	          0.01211287	          0.01495788	          0.01000003	          0.45865335	          0.08389746	          0.01000001	          0.01334686	          0.01381404	          0.03756729	          0.03394646	          0.08979384	          0.01225172	          0.01000011	          0.01000002	          0.01016619	          0.18661836	          0.12668782	          0.00999999	
          1.41858549	         -6.71531543	         -2.41753499	          6.03639113	          1.57913932	          0.93175607	         -0.00328998	         31.85769277	         -0.07787267	         -5.11019592	        -11.90554220	          3.30005118	          0.08647779	        -12.03490247	         -4.21541625	         -1.50351045	        -16.67402481	          8.70974433	         34.89913527	         -8.58978571	          1.50769842	          0.92515693	          0.03059794	          0.11105880	          0.04279296	          0.20620916	          0.20197087	          0.04395042	          0.11789039	          0.18890972	          0.04124921	          0.01000031	          0.02944633	          0.01220881	          0.01359370	          0.44714478	          0.10405326	          0.01000001	          0.01089386	          0.01127518	          0.07036952	          0.02770753	          0.07329080	          0.01000000	          0.08921782	          0.01000001	          0.00999999	          0.15232009	          0.10340408	          0.00999999	
